PathFileType	4	(X/Y/Z)	Kaydara	
DataRate	CameraRate	NumFrames	NumMarkers	Units	OrigDataRate	OrigDataStartFrame	OrigNumFrames	
240.00	240.00	4	72	mm	240.00	267	355	
Frame#	Time	Hips			RightUpLeg			RightLeg			RightFoot			RightFoot_End			LeftUpLeg			LeftLeg			LeftFoot			LeftFoot_End			Spine			Spine1			Spine2			Spine3			Neck			Head			Head_End			RightShoulder			RightArm			RightForeArm			RightHand			RightHandThumb1			RightHandThumb2			RightHandThumb3			RightHandThumb3_End			RightInHandIndex			RightHandIndex1			RightHandIndex2			RightHandIndex3			RightHandIndex3_End			RightInHandMiddle			RightHandMiddle1			RightHandMiddle2			RightHandMiddle3			RightHandMiddle3_End			RightInHandRing			RightHandRing1			RightHandRing2			RightHandRing3			RightHandRing3_End			RightInHandPinky			RightHandPinky1			RightHandPinky2			RightHandPinky3			RightHandPinky3_End			LeftShoulder			LeftArm			LeftForeArm			LeftHand			LeftHandThumb1			LeftHandThumb2			LeftHandThumb3			LeftHandThumb3_End			LeftInHandIndex			LeftHandIndex1			LeftHandIndex2			LeftHandIndex3			LeftHandIndex3_End			LeftInHandMiddle			LeftHandMiddle1			LeftHandMiddle2			LeftHandMiddle3			LeftHandMiddle3_End			LeftInHandRing			LeftHandRing1			LeftHandRing2			LeftHandRing3			LeftHandRing3_End			LeftInHandPinky			LeftHandPinky1			LeftHandPinky2			LeftHandPinky3			LeftHandPinky3_End			
		X1	Y1	Z1	X2	Y2	Z2	X3	Y3	Z3	X4	Y4	Z4	X5	Y5	Z5	X6	Y6	Z6	X7	Y7	Z7	X8	Y8	Z8	X9	Y9	Z9	X10	Y10	Z10	X11	Y11	Z11	X12	Y12	Z12	X13	Y13	Z13	X14	Y14	Z14	X15	Y15	Z15	X16	Y16	Z16	X17	Y17	Z17	X18	Y18	Z18	X19	Y19	Z19	X20	Y20	Z20	X21	Y21	Z21	X22	Y22	Z22	X23	Y23	Z23	X24	Y24	Z24	X25	Y25	Z25	X26	Y26	Z26	X27	Y27	Z27	X28	Y28	Z28	X29	Y29	Z29	X30	Y30	Z30	X31	Y31	Z31	X32	Y32	Z32	X33	Y33	Z33	X34	Y34	Z34	X35	Y35	Z35	X36	Y36	Z36	X37	Y37	Z37	X38	Y38	Z38	X39	Y39	Z39	X40	Y40	Z40	X41	Y41	Z41	X42	Y42	Z42	X43	Y43	Z43	X44	Y44	Z44	X45	Y45	Z45	X46	Y46	Z46	X47	Y47	Z47	X48	Y48	Z48	X49	Y49	Z49	X50	Y50	Z50	X51	Y51	Z51	X52	Y52	Z52	X53	Y53	Z53	X54	Y54	Z54	X55	Y55	Z55	X56	Y56	Z56	X57	Y57	Z57	X58	Y58	Z58	X59	Y59	Z59	X60	Y60	Z60	X61	Y61	Z61	X62	Y62	Z62	X63	Y63	Z63	X64	Y64	Z64	X65	Y65	Z65	X66	Y66	Z66	X67	Y67	Z67	X68	Y68	Z68	X69	Y69	Z69	X70	Y70	Z70	X71	Y71	Z71	X72	Y72	Z72	

267	1.108	7921.0129	906.651	56.2195	7934.556956487535	865.1524540570335	-16.690269303900617	7864.987923336239	456.3764838777108	-70.5356221838274	7952.369632935193	97.96647186876997	-187.37764222781675	7879.699551633259	17.888050329339734	-29.792646174584124	7913.963796454243	919.2308194628646	141.14419277560486	7861.4361067542295	518.6345042893838	250.6831137795988	7775.749631448925	88.57320752012065	291.48184583137873	7656.295428727524	-0.47614311406209664	172.2166791841854	7891.1758938254825	1036.6297910038504	4.725811168537984	7841.826885682646	1109.282498647679	-36.439457110363335	7784.454267445461	1180.0266280493609	-79.4528061732705	7720.858263150255	1239.2737741865155	-120.7152501207892	7652.232930700721	1302.217568648536	-164.13896012803227	7589.1105390499815	1359.7886322767856	-202.45099925032451	7464.660083377133	1451.7727038188043	-238.03525058041643	7676.659319732663	1268.0921993859781	-169.86695199761235	7668.154126857529	1220.530637223107	-231.28267820295045	7674.722888159691	1060.2470840083895	-125.22831817161465	7648.710585900041	995.290855485501	-102.3218352562838	7658.440163818545	1011.4866587286992	-114.76877518297454	7657.346730387715	1010.7184238180481	-116.55701877973685	7655.484481944025	1007.296064222326	-115.88179334984297	7652.990318721159	1001.9729269784547	-113.67590043841338	7656.278721019095	1003.6200253494595	-109.65630813774793	7659.89914885717	1001.3179822862169	-111.01229390898392	7657.654571893876	994.3859692896718	-108.58951893218642	7654.259879213711	989.6813290867497	-106.6946984618559	7650.101543943107	985.5208496919205	-104.8642439889531	7652.932324331751	995.5936502531549	-104.22549313579316	7654.65487354631	989.0083552070059	-102.6115111629449	7651.746348445774	980.3858983122484	-99.24259354452839	7647.430392617543	974.2020967828479	-96.60856537211083	7642.773283416717	969.4029043920488	-94.43654272138022	7650.517606472242	990.0165459511276	-100.37591804512377	7650.087785771759	979.3752592651228	-95.65182202174384	7647.080134288693	970.7882455828459	-91.97654786115575	7642.666086428805	964.2543699709789	-89.04341224929522	7638.168298982112	959.4722324510203	-86.81521103417047	7647.299562946971	983.3812781494611	-95.72728689907073	7645.063182821586	969.6465231368286	-88.6024268859905	7641.919066654344	961.1446144500665	-84.5270534532642	7638.34355664029	955.5923516544636	-81.83985624845424	7634.154433428333	950.9035585178003	-79.55079177269576	7673.893922380806	1295.5198086305509	-128.79004094106162	7687.365024088104	1314.9423252298736	-41.85290308702887	7738.994904640497	1106.269612826524	-64.86120447424796	7698.702372186265	961.2604605365121	-54.65845357830286	7691.19253194532	976.7068438948744	-59.676123985520654	7691.109359830717	971.2966783464129	-63.27910010772472	7692.483449345013	964.1634634782636	-65.22327969574914	7694.854017298637	955.3376518085043	-66.36077124368637	7695.252710730513	967.270759281776	-58.145134862469575	7696.956084670899	958.7259845895736	-61.23210538475893	7700.193581436507	946.3088444569728	-63.19987176843405	7702.034064335848	938.4418751567712	-64.54482736276034	7703.441233401861	931.8310685478777	-65.74006742292883	7699.185802660962	958.1067821343916	-56.492582625175125	7702.97404803647	944.8175096891939	-58.60970724229723	7707.022800830692	930.0784077226069	-60.52864240973538	7709.490889894582	920.0163767113149	-62.04173242381696	7711.150961819934	912.5054583479904	-63.2962861441687	7701.909927186175	951.8924832214036	-55.24503505089889	7707.637104044324	934.7110708591212	-56.055791893742864	7711.6875713110085	920.6690707856893	-57.49168518270888	7714.345216518432	910.3286460314571	-58.825502962138025	7716.037355174502	902.9656748977948	-59.94554253348347	7705.088014225836	944.6468296070263	-53.72755179332525	7712.263406441244	924.5594058133144	-53.53246542403687	7716.295665723072	911.5248362092509	-54.3095374958109	7718.615731957301	903.1164790507466	-55.10212422597119	7720.334287594764	896.09568740917	-55.99052852481841
268	1.113	7921.0129	906.651	56.2195	7934.145267762034	864.988328542346	-16.803345305938816	7864.669721524798	456.1668558676724	-70.45838308070135	7952.623940522622	97.91142623906599	-187.55669895770404	7879.973422660248	17.80840345420197	-29.974858399579222	7914.363207637574	919.3939161107212	141.26203789215933	7861.89138011348	518.8199303658223	250.909751439392	7775.9097245398225	88.76888276690379	291.45284298106816	7656.542149367938	-0.3702595676782189	172.16238064074935	7891.241373533129	1036.6400107199042	4.710172627339539	7841.871161885406	1109.3186312874295	-36.39014215785931	7784.467870150475	1180.0960447964737	-79.31527827969198	7720.828870992256	1239.3865969833207	-120.4579867658419	7652.157040032797	1302.373891679711	-163.75390714491954	7588.998184953311	1359.9891532433617	-201.94687406814475	7464.518734033142	1451.982259168662	-237.4054898889901	7676.445006438695	1268.1257223579562	-169.511721169946	7667.3656645026385	1220.1885607991992	-230.51890393223115	7674.019658165878	1060.7224790623382	-123.57072292783839	7647.575795117957	996.7493708913184	-99.46814171955437	7657.343930682765	1013.0828903621014	-111.87689655354737	7656.3308028882075	1012.3442294912593	-113.5326585327542	7654.515098489781	1008.9419825604473	-112.7526233517763	7652.051712020055	1003.6351994112335	-110.4486193213466	7655.145453169941	1005.2405907642957	-106.72040066595926	7658.7634942356535	1003.1262535190145	-107.88486781624003	7656.554351913346	996.2531342291747	-105.30498466245868	7653.209877490865	991.531562817953	-103.32449357109147	7649.112121890357	987.3209514149426	-101.43122626408338	7651.775388543692	997.2029600731139	-101.26098627076694	7653.482797187947	990.7946799222004	-99.44474017196715	7650.609869466905	982.2343041958245	-95.90120409056183	7646.353027533155	976.0290277790458	-93.16229049051375	7641.761487618181	971.1744723567481	-90.92079692637418	7649.343571727559	991.6138762673074	-97.39621478956623	7648.88405605565	981.1230622471261	-92.47801456762427	7645.904323412181	972.5876394807851	-88.64760721898577	7641.5456451579485	966.0317116245456	-85.6117426100561	7637.108727279363	961.1968848058289	-83.31748264472432	7646.109343924359	984.9533563244229	-92.73465778862706	7643.834278179434	971.343665444926	-85.42414475249836	7640.707802337739	962.8784766630911	-81.22081290849796	7637.170397819445	957.3079074854911	-78.45687872809185	7633.033882240329	952.5711617622962	-76.10825755296072	7673.995800191544	1295.773046722747	-128.46560052802724	7688.064934733271	1315.7851473207138	-41.59566861858779	7739.4417698990355	1106.8996034110075	-63.70522425752176	7697.884983144396	962.0449008438312	-52.29665653999455	7690.436285057712	977.6158530147417	-57.18214125078747	7690.416691210827	972.2971679317965	-60.56495292615524	7691.84860070092	965.2209427498966	-62.35620220504599	7694.2789572477595	956.4368944215545	-63.36653788945276	7694.556357673207	968.1703728208622	-55.647174929735776	7696.470118833633	959.7626028840989	-58.49828859346091	7699.823404882945	947.4234166506467	-60.26589483759094	7701.691708680003	939.5902077836587	-61.48461782899961	7703.092114264052	932.9974267188254	-62.57416568734421	7698.517509155802	958.9825306058979	-54.00218623602262	7702.526146073533	945.8139847885831	-55.89336456666719	7706.7042297416765	931.1563309779795	-57.595603242622616	7709.207314407597	921.1332958744108	-58.95722270176326	7710.860681344543	913.6412573439238	-60.09653080914817	7701.2565303350675	952.7480347685716	-52.766322451891185	7707.195444536049	935.6577530376941	-53.38566916062586	7711.361332506746	921.6828564960433	-54.63479750580147	7714.054165078713	911.3779821416272	-55.82362966063694	7715.740677554544	904.0317845888653	-56.83583995097739	7704.4422149180555	945.4738742380013	-51.266606165566195	7711.818044018072	925.4530413270634	-50.907915289404585	7715.946006423427	912.4657430138459	-51.53955480903876	7718.293324409283	904.0801902142629	-52.22838232410997	7720.00780888824	897.0724580495789	-53.02241492506041
269	1.117	7921.0129	906.651	56.2195	7933.734200217252	864.8245082360369	-16.916137273460087	7864.352270454669	455.95764211692574	-70.38157983181098	7952.877293903797	97.85648070045018	-187.73561794641773	7880.246370425112	17.728949193077398	-30.15687237587422	7914.762052437705	919.5567317929282	141.3796161243293	7862.34576421503	519.0051026754804	251.13604313909175	7776.069290394993	88.96430778898448	291.4239727954633	7656.788189197927	-0.2644391473069514	172.10824916586662	7891.306593636916	1036.6501117962644	4.694446175823702	7841.915022885532	1109.3544702963611	-36.34096849190101	7784.4809098145015	1180.1649843705297	-79.17792134212146	7720.798810905119	1239.4987958659879	-120.2008748894638	7652.080379328499	1302.5294475803803	-163.36898443531456	7588.884979672754	1360.1887903909553	-201.44285942428905	7464.376700130477	1452.1911809502294	-236.77574469815323	7676.229982355441	1268.1585760109456	-169.15659439562234	7666.575933680239	1219.8451725650716	-229.7548409809028	7673.316611418295	1061.1967495693696	-121.91148167959264	7646.442795982905	998.2057891318013	-96.60824867496153	7656.249581548377	1014.6763500643827	-108.97854735241629	7655.316935985251	1013.9669249533514	-110.50139507997463	7653.547907044447	1010.5846283726486	-109.61618465701385	7651.115414093487	1005.2941266783254	-107.2137098884883	7654.014104100114	1006.8585644616558	-103.77775614593267	7657.63000094151	1004.9315377762534	-104.74969460951156	7655.456482987908	998.1171466740138	-102.0120615399953	7652.162330580756	993.378572269861	-99.94566511163934	7648.125230954867	989.1177904330339	-97.98950148980178	7650.620387020276	998.8098964044168	-98.28960579541818	7652.312900038346	992.5783636346775	-96.27003649894363	7649.475778010141	984.0799186761155	-92.55116702360341	7645.278175766061	977.8530952652109	-89.70707778229769	7640.752288927046	972.9431418152132	-87.39601854072049	7648.171475889161	993.2089966478305	-94.40956597604475	7647.6824884744	982.8685554401602	-89.29624632692467	7644.730857163456	974.3846238110191	-85.31006934600487	7640.427670346158	967.8065907857545	-82.17118873917362	7636.051701052536	962.9190496427066	-79.81077757294572	7644.921062991418	986.5234301274639	-89.73503924169869	7642.607515579251	973.0388360087198	-82.23791047699035	7639.498826668921	964.6103365219765	-77.90609425570817	7635.999616739131	959.0214462018666	-75.06520586319627	7631.915778920442	954.2367394454176	-72.65694154764799	7674.09691280014	1296.025513746623	-128.14133195066907	7688.764197664299	1316.6270949591342	-41.3388459548774	7739.890156620561	1107.5286163873648	-62.548473257243444	7697.070491517392	962.828191753548	-49.9316129326166	7689.683072567222	978.5235089958583	-54.684874333003904	7689.727387090843	973.2963473128025	-57.847543612541266	7691.217394154097	966.2771591728963	-59.4859105276546	7693.707811532868	957.5349285976903	-60.369158197652126	7693.863222465624	969.0686543640205	-53.146049088095324	7695.98803821945	960.7977733591434	-55.76152881035222	7699.4575788129205	948.536581889988	-57.3291038588564	7701.3539025650625	940.7372203032804	-58.421616194806425	7702.747648587557	934.1625781099282	-59.405450747999495	7697.852540085254	959.8570043643152	-51.508703571633426	7702.082277132649	946.8091031537912	-53.17419612377188	7706.390211266384	932.2329501769115	-54.65988876344337	7708.928537399799	922.2490196391769	-55.87006882579184	7710.575315831898	914.775986828647	-56.894110504176936	7700.606516626666	953.6023538863442	-50.28457467361632	7706.757855445554	936.6031626427758	-50.71279060134452	7711.039628039714	922.6954239533162	-51.77529469102402	7713.767890996358	912.4262092725887	-52.81917634764502	7715.44888959428	905.096905781956	-53.72354018805334	7703.799843646296	946.2997475280591	-48.80267366914501	7711.37676935128	926.345502470327	-48.28066611828189	7715.600820595223	913.4055322441473	-48.76699942208631	7717.975574473865	905.0428699411929	-49.352099960098684	7719.686091236263	898.0483076823746	-50.051749462232195
270	1.121	7921.0129	906.651	56.2195	7933.323784014214	864.6610046577367	-17.028637909280054	7864.035590882953	455.74885720581716	-70.3052154968922	7953.129679517788	97.80163921686551	-187.91438509872515	7880.5183794571785	17.649692849520015	-30.33867422937528	7915.160301303326	919.7192548819463	141.4969196304946	7862.799227400214	519.1900074323303	251.3619723084417	7776.228319670873	89.15946784552689	291.3952364996484	7657.0335327148805	-0.1586904677678972	172.05428788017048	7891.371550623725	1036.66009431884	4.678633855369901	7841.958468287451	1109.3900150124546	-36.29193917052847	7784.493389919226	1180.2334448123875	-79.04074570701528	7720.768090966552	1239.6103664190384	-119.94393524792382	7652.002961542116	1302.684229441579	-162.98422387198195	7588.770940003534	1360.3875340310128	-200.93899755305006	7464.233999546996	1452.3994565526646	-236.14606884715545	7676.0142718670195	1268.1907632232715	-168.8016011880254	7665.785013078654	1219.5005135879994	-228.99055722396923	7672.613807598003	1061.669865221237	-120.2507530817783	7645.311672872155	999.660009287797	-93.74246111425242	7655.157196853334	1016.2669319799784	-106.07403858509794	7654.305201639707	1015.5864055755968	-107.46355491453932	7652.582974402968	1012.223897271998	-106.4728162103739	7650.1814880607335	1006.9496040703347	-103.97152289037689	7652.884757188096	1008.4738369951148	-100.82869184456264	7656.4987507117885	1006.7337143874671	-101.6071176341278	7654.361042196961	999.9778831748554	-98.71111246228128	7651.117310264112	995.2222363975133	-96.55858552650996	7647.140936910753	990.9112504784911	-94.53944824939364	7649.467405035978	1000.4143487643742	-95.31167266720225	7651.145266797527	994.3592843522064	-93.08774853327589	7648.344153944184	985.9226166345516	-89.19285247247254	7644.205910912808	979.6741769784461	-86.24330908652621	7639.745754426111	974.7087957098045	-83.8625962163229	7647.00140565312	994.8017961069759	-91.41629450573798	7646.483170560889	984.611616939249	-86.10686647795237	7643.55981912152	976.1790738662955	-81.96430273848374	7639.31223965898	969.5788854608113	-78.72213062476033	7634.997291907316	964.6386098426564	-76.29548230579009	7643.73480821364	988.0913887699055	-86.72875562983054	7641.3829848326195	974.7319139499284	-79.04407345325045	7638.292226690533	966.3400708318575	-74.58326282012125	7634.831296320829	960.7328465527987	-71.6652115848366	7630.800201132667	955.9001746144314	-69.19722357345559	7674.197257792699	1296.2771944109174	-127.8172615690852	7689.46275792174	1317.468102753902	-41.08245402916445	7740.34001339452	1108.156606655426	-61.3910597989709	7696.258942344122	963.6102799603871	-47.563557729355786	7688.932932906521	979.4297502862449	-52.18457007619495	7689.041477314615	974.2941470120755	-55.127137919049794	7690.589851958505	967.3320381826848	-56.61268324076215	7693.140594704424	958.6316759009118	-57.368921144042815	7693.17333667256	969.9655431228538	-50.64200341495455	7695.5098499792775	961.8314255154105	-53.02209053095714	7699.096096033189	949.6482630698001	-54.389779497225746	7701.0206345369315	941.8828319885663	-55.356113867705886	7702.407824532804	935.3264393234485	-56.23422336941957	7697.190923614392	960.7301441414661	-49.012379295849044	7701.642443726671	947.8027968671676	-50.452463776377016	7706.080731899232	933.3081904256787	-51.72177823700059	7708.654540049385	923.3634688536982	-52.78056290501142	7710.294845953021	915.9095647822402	-53.68932752014421	7699.959912404906	954.4553826277358	-47.80003487861699	7706.324338422813	937.5472351207118	-48.03741339345646	7710.7224452648725	923.7067027745325	-48.913448809448596	7713.4863763214225	913.4732530673252	-49.81242733799067	7715.161972783035	906.1609614865835	-50.60893706398426	7703.160925695548	947.1243933394228	-46.33599545960145	7710.93958427426	927.2367281557804	-45.65097057989945	7715.260098212968	914.344138565409	-45.99213544175203	7717.662468056856	906.0044502015116	-46.473549935026455	7719.3691199332325	899.0231660617678	-47.07881322079006
